<mxfile host="app.diagrams.net" modified="2024-02-16T17:19:15.998Z" agent="Mozilla/5.0 (Windows NT 10.0; Win64; x64) AppleWebKit/537.36 (KHTML, like Gecko) Chrome/120.0.0.0 YaBrowser/24.1.0.0 Safari/537.36" etag="EhvPQwxy6mYBCJkyyYT-" version="23.1.5" type="github">
  <diagram id="R2lEEEUBdFMjLlhIrx00" name="Page-1">
    <mxGraphModel dx="1183" dy="548" grid="1" gridSize="10" guides="1" tooltips="1" connect="1" arrows="1" fold="1" page="1" pageScale="1" pageWidth="850" pageHeight="1100" math="0" shadow="0" extFonts="Permanent Marker^https://fonts.googleapis.com/css?family=Permanent+Marker">
      <root>
        <mxCell id="0" />
        <mxCell id="1" parent="0" />
        <mxCell id="g_GT8sTN8z2uKkGh5tRA-1" value="Фильмы" style="swimlane;fontStyle=0;childLayout=stackLayout;horizontal=1;startSize=30;horizontalStack=0;resizeParent=1;resizeParentMax=0;resizeLast=0;collapsible=1;marginBottom=0;whiteSpace=wrap;html=1;" vertex="1" parent="1">
          <mxGeometry x="310" y="240" width="140" height="130" as="geometry" />
        </mxCell>
        <mxCell id="g_GT8sTN8z2uKkGh5tRA-2" value="Название&lt;br&gt;Продолжительность&lt;br&gt;Страна&lt;br&gt;Год" style="text;strokeColor=none;fillColor=none;align=left;verticalAlign=middle;spacingLeft=4;spacingRight=4;overflow=hidden;points=[[0,0.5],[1,0.5]];portConstraint=eastwest;rotatable=0;whiteSpace=wrap;html=1;" vertex="1" parent="g_GT8sTN8z2uKkGh5tRA-1">
          <mxGeometry y="30" width="140" height="100" as="geometry" />
        </mxCell>
        <mxCell id="g_GT8sTN8z2uKkGh5tRA-5" value="Премии" style="swimlane;fontStyle=0;childLayout=stackLayout;horizontal=1;startSize=30;horizontalStack=0;resizeParent=1;resizeParentMax=0;resizeLast=0;collapsible=1;marginBottom=0;whiteSpace=wrap;html=1;" vertex="1" parent="1">
          <mxGeometry x="560" y="30" width="140" height="130" as="geometry" />
        </mxCell>
        <mxCell id="g_GT8sTN8z2uKkGh5tRA-6" value="Название&lt;br&gt;Год&lt;br&gt;Категория&lt;br&gt;Победитель&amp;nbsp;" style="text;strokeColor=none;fillColor=none;align=left;verticalAlign=middle;spacingLeft=4;spacingRight=4;overflow=hidden;points=[[0,0.5],[1,0.5]];portConstraint=eastwest;rotatable=0;whiteSpace=wrap;html=1;" vertex="1" parent="g_GT8sTN8z2uKkGh5tRA-5">
          <mxGeometry y="30" width="140" height="100" as="geometry" />
        </mxCell>
        <mxCell id="g_GT8sTN8z2uKkGh5tRA-7" value="Артисты" style="swimlane;fontStyle=0;childLayout=stackLayout;horizontal=1;startSize=30;horizontalStack=0;resizeParent=1;resizeParentMax=0;resizeLast=0;collapsible=1;marginBottom=0;whiteSpace=wrap;html=1;" vertex="1" parent="1">
          <mxGeometry x="560" y="240" width="140" height="130" as="geometry" />
        </mxCell>
        <mxCell id="g_GT8sTN8z2uKkGh5tRA-8" value="ФИО&lt;br&gt;Страна&lt;br&gt;Возраст&lt;br&gt;Рейтинг" style="text;strokeColor=none;fillColor=none;align=left;verticalAlign=middle;spacingLeft=4;spacingRight=4;overflow=hidden;points=[[0,0.5],[1,0.5]];portConstraint=eastwest;rotatable=0;whiteSpace=wrap;html=1;" vertex="1" parent="g_GT8sTN8z2uKkGh5tRA-7">
          <mxGeometry y="30" width="140" height="100" as="geometry" />
        </mxCell>
        <mxCell id="g_GT8sTN8z2uKkGh5tRA-9" value="Роли" style="swimlane;fontStyle=0;childLayout=stackLayout;horizontal=1;startSize=30;horizontalStack=0;resizeParent=1;resizeParentMax=0;resizeLast=0;collapsible=1;marginBottom=0;whiteSpace=wrap;html=1;" vertex="1" parent="1">
          <mxGeometry x="560" y="450" width="140" height="130" as="geometry" />
        </mxCell>
        <mxCell id="g_GT8sTN8z2uKkGh5tRA-10" value="Название&amp;nbsp;&lt;br&gt;Описание&lt;div&gt;Экранное время&lt;/div&gt;&lt;div&gt;Черты&lt;/div&gt;" style="text;strokeColor=none;fillColor=none;align=left;verticalAlign=middle;spacingLeft=4;spacingRight=4;overflow=hidden;points=[[0,0.5],[1,0.5]];portConstraint=eastwest;rotatable=0;whiteSpace=wrap;html=1;" vertex="1" parent="g_GT8sTN8z2uKkGh5tRA-9">
          <mxGeometry y="30" width="140" height="100" as="geometry" />
        </mxCell>
        <mxCell id="g_GT8sTN8z2uKkGh5tRA-11" value="Студии" style="swimlane;fontStyle=0;childLayout=stackLayout;horizontal=1;startSize=30;horizontalStack=0;resizeParent=1;resizeParentMax=0;resizeLast=0;collapsible=1;marginBottom=0;whiteSpace=wrap;html=1;" vertex="1" parent="1">
          <mxGeometry x="320" y="40" width="140" height="130" as="geometry" />
        </mxCell>
        <mxCell id="g_GT8sTN8z2uKkGh5tRA-12" value="Название&lt;br&gt;Год создания&lt;br&gt;Фильмы&lt;br&gt;Режиссеры" style="text;strokeColor=none;fillColor=none;align=left;verticalAlign=middle;spacingLeft=4;spacingRight=4;overflow=hidden;points=[[0,0.5],[1,0.5]];portConstraint=eastwest;rotatable=0;whiteSpace=wrap;html=1;" vertex="1" parent="g_GT8sTN8z2uKkGh5tRA-11">
          <mxGeometry y="30" width="140" height="100" as="geometry" />
        </mxCell>
        <mxCell id="g_GT8sTN8z2uKkGh5tRA-13" value="" style="endArrow=none;html=1;rounded=0;exitX=0.5;exitY=0;exitDx=0;exitDy=0;entryX=0.483;entryY=1.024;entryDx=0;entryDy=0;entryPerimeter=0;" edge="1" parent="1" source="g_GT8sTN8z2uKkGh5tRA-9" target="g_GT8sTN8z2uKkGh5tRA-8">
          <mxGeometry width="50" height="50" relative="1" as="geometry">
            <mxPoint x="590" y="350" as="sourcePoint" />
            <mxPoint x="640" y="300" as="targetPoint" />
          </mxGeometry>
        </mxCell>
        <mxCell id="g_GT8sTN8z2uKkGh5tRA-17" value="M" style="edgeLabel;html=1;align=center;verticalAlign=middle;resizable=0;points=[];" vertex="1" connectable="0" parent="g_GT8sTN8z2uKkGh5tRA-13">
          <mxGeometry x="0.5308" y="-2" relative="1" as="geometry">
            <mxPoint y="-1" as="offset" />
          </mxGeometry>
        </mxCell>
        <mxCell id="g_GT8sTN8z2uKkGh5tRA-18" value="M" style="edgeLabel;html=1;align=center;verticalAlign=middle;resizable=0;points=[];" vertex="1" connectable="0" parent="g_GT8sTN8z2uKkGh5tRA-13">
          <mxGeometry x="-0.4991" relative="1" as="geometry">
            <mxPoint y="-1" as="offset" />
          </mxGeometry>
        </mxCell>
        <mxCell id="g_GT8sTN8z2uKkGh5tRA-14" value="" style="endArrow=none;html=1;rounded=0;exitX=1;exitY=0.5;exitDx=0;exitDy=0;entryX=0;entryY=0.5;entryDx=0;entryDy=0;" edge="1" parent="1" source="g_GT8sTN8z2uKkGh5tRA-2" target="g_GT8sTN8z2uKkGh5tRA-8">
          <mxGeometry width="50" height="50" relative="1" as="geometry">
            <mxPoint x="630" y="350" as="sourcePoint" />
            <mxPoint x="680" y="300" as="targetPoint" />
          </mxGeometry>
        </mxCell>
        <mxCell id="g_GT8sTN8z2uKkGh5tRA-15" value="M" style="edgeLabel;html=1;align=center;verticalAlign=middle;resizable=0;points=[];" vertex="1" connectable="0" parent="g_GT8sTN8z2uKkGh5tRA-14">
          <mxGeometry x="-0.6444" relative="1" as="geometry">
            <mxPoint as="offset" />
          </mxGeometry>
        </mxCell>
        <mxCell id="g_GT8sTN8z2uKkGh5tRA-16" value="M" style="edgeLabel;html=1;align=center;verticalAlign=middle;resizable=0;points=[];" vertex="1" connectable="0" parent="g_GT8sTN8z2uKkGh5tRA-14">
          <mxGeometry x="0.5475" y="-1" relative="1" as="geometry">
            <mxPoint as="offset" />
          </mxGeometry>
        </mxCell>
        <mxCell id="g_GT8sTN8z2uKkGh5tRA-19" value="" style="endArrow=none;html=1;rounded=0;exitX=0.5;exitY=0;exitDx=0;exitDy=0;entryX=0.459;entryY=1;entryDx=0;entryDy=0;entryPerimeter=0;" edge="1" parent="1" source="g_GT8sTN8z2uKkGh5tRA-1" target="g_GT8sTN8z2uKkGh5tRA-12">
          <mxGeometry width="50" height="50" relative="1" as="geometry">
            <mxPoint x="490" y="170" as="sourcePoint" />
            <mxPoint x="540" y="120" as="targetPoint" />
          </mxGeometry>
        </mxCell>
        <mxCell id="g_GT8sTN8z2uKkGh5tRA-23" value="M" style="edgeLabel;html=1;align=center;verticalAlign=middle;resizable=0;points=[];" vertex="1" connectable="0" parent="g_GT8sTN8z2uKkGh5tRA-19">
          <mxGeometry x="-0.5285" y="1" relative="1" as="geometry">
            <mxPoint as="offset" />
          </mxGeometry>
        </mxCell>
        <mxCell id="g_GT8sTN8z2uKkGh5tRA-24" value="M" style="edgeLabel;html=1;align=center;verticalAlign=middle;resizable=0;points=[];" vertex="1" connectable="0" parent="g_GT8sTN8z2uKkGh5tRA-19">
          <mxGeometry x="0.6422" y="1" relative="1" as="geometry">
            <mxPoint as="offset" />
          </mxGeometry>
        </mxCell>
        <mxCell id="g_GT8sTN8z2uKkGh5tRA-20" value="" style="endArrow=none;html=1;rounded=0;exitX=0.432;exitY=-0.006;exitDx=0;exitDy=0;entryX=0.41;entryY=1.008;entryDx=0;entryDy=0;entryPerimeter=0;exitPerimeter=0;" edge="1" parent="1" source="g_GT8sTN8z2uKkGh5tRA-7" target="g_GT8sTN8z2uKkGh5tRA-6">
          <mxGeometry width="50" height="50" relative="1" as="geometry">
            <mxPoint x="610" y="235" as="sourcePoint" />
            <mxPoint x="614" y="170" as="targetPoint" />
          </mxGeometry>
        </mxCell>
        <mxCell id="g_GT8sTN8z2uKkGh5tRA-21" value="M" style="edgeLabel;html=1;align=center;verticalAlign=middle;resizable=0;points=[];" vertex="1" connectable="0" parent="g_GT8sTN8z2uKkGh5tRA-20">
          <mxGeometry x="-0.5235" y="1" relative="1" as="geometry">
            <mxPoint as="offset" />
          </mxGeometry>
        </mxCell>
        <mxCell id="g_GT8sTN8z2uKkGh5tRA-22" value="M" style="edgeLabel;html=1;align=center;verticalAlign=middle;resizable=0;points=[];" vertex="1" connectable="0" parent="g_GT8sTN8z2uKkGh5tRA-20">
          <mxGeometry x="0.593" relative="1" as="geometry">
            <mxPoint as="offset" />
          </mxGeometry>
        </mxCell>
      </root>
    </mxGraphModel>
  </diagram>
</mxfile>
